{
    "asset" : {
        "generator" : "Khronos glTF Blender I/O v1.2.75",
        "version" : "2.0"
    },
    "scene" : 0,
    "scenes" : [
        {
            "name" : "Scene",
            "nodes" : [
                0
            ]
        }
    ],
    "nodes" : [
        {
            "mesh" : 0,
            "name" : "Circle.001",
            "rotation" : [
                0.005980898160487413,
                0.44079679250717163,
                -0.04248255491256714,
                0.8965811133384705
            ],
            "scale" : [
                0.34260115027427673,
                0.34260112047195435,
                0.34260109066963196
            ],
            "translation" : [
                -8.322164535522461,
                11.709081649780273,
                -4.645199775695801
            ]
        }
    ],
    "materials" : [
        {
            "doubleSided" : true,
            "emissiveFactor" : [
                0,
                0,
                0
            ],
            "name" : "Material.001",
            "pbrMetallicRoughness" : {
                "baseColorFactor" : [
                    0.046664923429489136,
                    0.49102091789245605,
                    0.7991030216217041,
                    1
                ],
                "metallicFactor" : 1,
                "roughnessFactor" : 1
            }
        },
        {
            "doubleSided" : true,
            "emissiveFactor" : [
                0,
                0,
                0
            ],
            "name" : "Material.002",
            "pbrMetallicRoughness" : {
                "baseColorFactor" : [
                    0.01370207965373993,
                    0.013702085241675377,
                    0.013702084310352802,
                    1
                ],
                "metallicFactor" : 1,
                "roughnessFactor" : 1
            }
        },
        {
            "doubleSided" : true,
            "emissiveFactor" : [
                0,
                0,
                0
            ],
            "name" : "Material.003",
            "pbrMetallicRoughness" : {
                "baseColorFactor" : [
                    0.49693313241004944,
                    0.4969329833984375,
                    0.4969330132007599,
                    1
                ],
                "metallicFactor" : 1,
                "roughnessFactor" : 1
            }
        },
        {
            "doubleSided" : true,
            "emissiveFactor" : [
                0,
                0,
                0
            ],
            "name" : "Material.005",
            "pbrMetallicRoughness" : {
                "baseColorFactor" : [
                    1,
                    0,
                    0.327778160572052,
                    1
                ],
                "metallicFactor" : 1,
                "roughnessFactor" : 1
            }
        },
        {
            "doubleSided" : true,
            "emissiveFactor" : [
                0,
                0,
                0
            ],
            "name" : "Material.007",
            "pbrMetallicRoughness" : {
                "baseColorFactor" : [
                    0.7991031408309937,
                    0.7991029024124146,
                    0.7991030216217041,
                    1
                ],
                "metallicFactor" : 1,
                "roughnessFactor" : 1
            }
        },
        {
            "doubleSided" : true,
            "emissiveFactor" : [
                0,
                0,
                0
            ],
            "name" : "Material.015",
            "pbrMetallicRoughness" : {
                "baseColorFactor" : [
                    0.3915725648403168,
                    0.4969329833984375,
                    0,
                    1
                ],
                "metallicFactor" : 1,
                "roughnessFactor" : 1
            }
        }
    ],
    "meshes" : [
        {
            "name" : "Circle.002",
            "primitives" : [
                {
                    "attributes" : {
                        "POSITION" : 0,
                        "NORMAL" : 1,
                        "COLOR_0" : 2,
                        "JOINTS_0" : 3,
                        "WEIGHTS_0" : 4
                    },
                    "indices" : 5,
                    "material" : 0
                },
                {
                    "attributes" : {
                        "POSITION" : 6,
                        "NORMAL" : 7,
                        "COLOR_0" : 8,
                        "JOINTS_0" : 9,
                        "WEIGHTS_0" : 10
                    },
                    "indices" : 11,
                    "material" : 1
                },
                {
                    "attributes" : {
                        "POSITION" : 12,
                        "NORMAL" : 13,
                        "COLOR_0" : 14,
                        "JOINTS_0" : 15,
                        "WEIGHTS_0" : 16
                    },
                    "indices" : 17,
                    "material" : 2
                },
                {
                    "attributes" : {
                        "POSITION" : 18,
                        "NORMAL" : 19,
                        "COLOR_0" : 20,
                        "JOINTS_0" : 21,
                        "WEIGHTS_0" : 22
                    },
                    "indices" : 23,
                    "material" : 3
                },
                {
                    "attributes" : {
                        "POSITION" : 24,
                        "NORMAL" : 25,
                        "COLOR_0" : 26,
                        "JOINTS_0" : 27,
                        "WEIGHTS_0" : 28
                    },
                    "indices" : 29,
                    "material" : 4
                },
                {
                    "attributes" : {
                        "POSITION" : 30,
                        "NORMAL" : 31,
                        "COLOR_0" : 32,
                        "JOINTS_0" : 33,
                        "WEIGHTS_0" : 34
                    },
                    "indices" : 35,
                    "material" : 5
                }
            ]
        }
    ],
    "accessors" : [
        {
            "bufferView" : 0,
            "componentType" : 5126,
            "count" : 20651,
            "max" : [
                13.701050758361816,
                30.997596740722656,
                12.658709526062012
            ],
            "min" : [
                -13.701050758361816,
                -33.367103576660156,
                -13.676373481750488
            ],
            "type" : "VEC3"
        },
        {
            "bufferView" : 1,
            "componentType" : 5126,
            "count" : 20651,
            "type" : "VEC3"
        },
        {
            "bufferView" : 2,
            "componentType" : 5126,
            "count" : 20651,
            "type" : "VEC4"
        },
        {
            "bufferView" : 3,
            "componentType" : 5123,
            "count" : 20651,
            "type" : "VEC4"
        },
        {
            "bufferView" : 4,
            "componentType" : 5126,
            "count" : 20651,
            "type" : "VEC4"
        },
        {
            "bufferView" : 5,
            "componentType" : 5123,
            "count" : 121125,
            "type" : "SCALAR"
        },
        {
            "bufferView" : 6,
            "componentType" : 5126,
            "count" : 3491,
            "max" : [
                4.6342267990112305,
                9.943954467773438,
                11.586969375610352
            ],
            "min" : [
                -4.614861965179443,
                5.806313991546631,
                6.632944107055664
            ],
            "type" : "VEC3"
        },
        {
            "bufferView" : 7,
            "componentType" : 5126,
            "count" : 3491,
            "type" : "VEC3"
        },
        {
            "bufferView" : 8,
            "componentType" : 5126,
            "count" : 3491,
            "type" : "VEC4"
        },
        {
            "bufferView" : 9,
            "componentType" : 5123,
            "count" : 3491,
            "type" : "VEC4"
        },
        {
            "bufferView" : 10,
            "componentType" : 5126,
            "count" : 3491,
            "type" : "VEC4"
        },
        {
            "bufferView" : 11,
            "componentType" : 5123,
            "count" : 5217,
            "type" : "SCALAR"
        },
        {
            "bufferView" : 12,
            "componentType" : 5126,
            "count" : 6704,
            "max" : [
                13.290457725524902,
                7.294195175170898,
                12.422410011291504
            ],
            "min" : [
                -13.290457725524902,
                -11.518152236938477,
                -13.265778541564941
            ],
            "type" : "VEC3"
        },
        {
            "bufferView" : 13,
            "componentType" : 5126,
            "count" : 6704,
            "type" : "VEC3"
        },
        {
            "bufferView" : 14,
            "componentType" : 5126,
            "count" : 6704,
            "type" : "VEC4"
        },
        {
            "bufferView" : 15,
            "componentType" : 5123,
            "count" : 6704,
            "type" : "VEC4"
        },
        {
            "bufferView" : 16,
            "componentType" : 5126,
            "count" : 6704,
            "type" : "VEC4"
        },
        {
            "bufferView" : 17,
            "componentType" : 5123,
            "count" : 33705,
            "type" : "SCALAR"
        },
        {
            "bufferView" : 18,
            "componentType" : 5126,
            "count" : 860,
            "max" : [
                9.52105712890625,
                0.8589544296264648,
                10.102066040039062
            ],
            "min" : [
                -9.52105712890625,
                -10.59084701538086,
                -9.279644966125488
            ],
            "type" : "VEC3"
        },
        {
            "bufferView" : 19,
            "componentType" : 5126,
            "count" : 860,
            "type" : "VEC3"
        },
        {
            "bufferView" : 20,
            "componentType" : 5126,
            "count" : 860,
            "type" : "VEC4"
        },
        {
            "bufferView" : 21,
            "componentType" : 5123,
            "count" : 860,
            "type" : "VEC4"
        },
        {
            "bufferView" : 22,
            "componentType" : 5126,
            "count" : 860,
            "type" : "VEC4"
        },
        {
            "bufferView" : 23,
            "componentType" : 5123,
            "count" : 5148,
            "type" : "SCALAR"
        },
        {
            "bufferView" : 24,
            "componentType" : 5126,
            "count" : 68,
            "max" : [
                9.812231063842773,
                -10.3768949508667,
                -2.697009563446045
            ],
            "min" : [
                -9.812225341796875,
                -14.360222816467285,
                -3.4405994415283203
            ],
            "type" : "VEC3"
        },
        {
            "bufferView" : 25,
            "componentType" : 5126,
            "count" : 68,
            "type" : "VEC3"
        },
        {
            "bufferView" : 26,
            "componentType" : 5126,
            "count" : 68,
            "type" : "VEC4"
        },
        {
            "bufferView" : 27,
            "componentType" : 5123,
            "count" : 68,
            "type" : "VEC4"
        },
        {
            "bufferView" : 28,
            "componentType" : 5126,
            "count" : 68,
            "type" : "VEC4"
        },
        {
            "bufferView" : 29,
            "componentType" : 5123,
            "count" : 192,
            "type" : "SCALAR"
        },
        {
            "bufferView" : 30,
            "componentType" : 5126,
            "count" : 482,
            "max" : [
                1.9824029207229614,
                33.430782318115234,
                1.982401728630066
            ],
            "min" : [
                -1.9824022054672241,
                30.124317169189453,
                -1.9824024438858032
            ],
            "type" : "VEC3"
        },
        {
            "bufferView" : 31,
            "componentType" : 5126,
            "count" : 482,
            "type" : "VEC3"
        },
        {
            "bufferView" : 32,
            "componentType" : 5126,
            "count" : 482,
            "type" : "VEC4"
        },
        {
            "bufferView" : 33,
            "componentType" : 5123,
            "count" : 482,
            "type" : "VEC4"
        },
        {
            "bufferView" : 34,
            "componentType" : 5126,
            "count" : 482,
            "type" : "VEC4"
        },
        {
            "bufferView" : 35,
            "componentType" : 5123,
            "count" : 2880,
            "type" : "SCALAR"
        }
    ],
    "bufferViews" : [
        {
            "buffer" : 0,
            "byteLength" : 247812,
            "byteOffset" : 0
        },
        {
            "buffer" : 0,
            "byteLength" : 247812,
            "byteOffset" : 247812
        },
        {
            "buffer" : 0,
            "byteLength" : 330416,
            "byteOffset" : 495624
        },
        {
            "buffer" : 0,
            "byteLength" : 165208,
            "byteOffset" : 826040
        },
        {
            "buffer" : 0,
            "byteLength" : 330416,
            "byteOffset" : 991248
        },
        {
            "buffer" : 0,
            "byteLength" : 242250,
            "byteOffset" : 1321664
        },
        {
            "buffer" : 0,
            "byteLength" : 41892,
            "byteOffset" : 1563916
        },
        {
            "buffer" : 0,
            "byteLength" : 41892,
            "byteOffset" : 1605808
        },
        {
            "buffer" : 0,
            "byteLength" : 55856,
            "byteOffset" : 1647700
        },
        {
            "buffer" : 0,
            "byteLength" : 27928,
            "byteOffset" : 1703556
        },
        {
            "buffer" : 0,
            "byteLength" : 55856,
            "byteOffset" : 1731484
        },
        {
            "buffer" : 0,
            "byteLength" : 10434,
            "byteOffset" : 1787340
        },
        {
            "buffer" : 0,
            "byteLength" : 80448,
            "byteOffset" : 1797776
        },
        {
            "buffer" : 0,
            "byteLength" : 80448,
            "byteOffset" : 1878224
        },
        {
            "buffer" : 0,
            "byteLength" : 107264,
            "byteOffset" : 1958672
        },
        {
            "buffer" : 0,
            "byteLength" : 53632,
            "byteOffset" : 2065936
        },
        {
            "buffer" : 0,
            "byteLength" : 107264,
            "byteOffset" : 2119568
        },
        {
            "buffer" : 0,
            "byteLength" : 67410,
            "byteOffset" : 2226832
        },
        {
            "buffer" : 0,
            "byteLength" : 10320,
            "byteOffset" : 2294244
        },
        {
            "buffer" : 0,
            "byteLength" : 10320,
            "byteOffset" : 2304564
        },
        {
            "buffer" : 0,
            "byteLength" : 13760,
            "byteOffset" : 2314884
        },
        {
            "buffer" : 0,
            "byteLength" : 6880,
            "byteOffset" : 2328644
        },
        {
            "buffer" : 0,
            "byteLength" : 13760,
            "byteOffset" : 2335524
        },
        {
            "buffer" : 0,
            "byteLength" : 10296,
            "byteOffset" : 2349284
        },
        {
            "buffer" : 0,
            "byteLength" : 816,
            "byteOffset" : 2359580
        },
        {
            "buffer" : 0,
            "byteLength" : 816,
            "byteOffset" : 2360396
        },
        {
            "buffer" : 0,
            "byteLength" : 1088,
            "byteOffset" : 2361212
        },
        {
            "buffer" : 0,
            "byteLength" : 544,
            "byteOffset" : 2362300
        },
        {
            "buffer" : 0,
            "byteLength" : 1088,
            "byteOffset" : 2362844
        },
        {
            "buffer" : 0,
            "byteLength" : 384,
            "byteOffset" : 2363932
        },
        {
            "buffer" : 0,
            "byteLength" : 5784,
            "byteOffset" : 2364316
        },
        {
            "buffer" : 0,
            "byteLength" : 5784,
            "byteOffset" : 2370100
        },
        {
            "buffer" : 0,
            "byteLength" : 7712,
            "byteOffset" : 2375884
        },
        {
            "buffer" : 0,
            "byteLength" : 3856,
            "byteOffset" : 2383596
        },
        {
            "buffer" : 0,
            "byteLength" : 7712,
            "byteOffset" : 2387452
        },
        {
            "buffer" : 0,
            "byteLength" : 5760,
            "byteOffset" : 2395164
        }
    ],
    "buffers" : [
        {
            "byteLength" : 2400924,
            "uri" : "data:application/octet-stream;base64,"
        }
    ]
}
